 <svg  version="1.0" xmlns="http://www.w3.org/2000/svg"  width="300.000000pt" height="300.000000pt" viewBox="0 0 300.000000 300.000000"  preserveAspectRatio="xMidYMid meet">  <g transform="translate(0.000000,300.000000) scale(0.050000,-0.050000)" fill="#ea9a36" stroke="none"> <path d="M3488 4851 c-52 -134 402 -330 480 -206 37 59 -10 101 -190 169 -183 70 -273 82 -290 37z"/> <path d="M4093 4587 c-59 -60 136 -327 239 -327 118 0 112 87 -15 227 -98 108 -179 144 -224 100z"/> <path d="M1995 4539 c-32 -19 -35 -78 -36 -755 l0 -734 -160 -76 c-380 -180 -552 -524 -411 -827 97 -209 372 -291 372 -112 0 35 -18 55 -68 76 -277 115 -196 484 147 667 l121 64 0 -331 c0 -182 7 -331 15 -331 8 0 70 9 137 20 115 19 257 6 353 -31 33 -12 35 12 35 339 l0 352 325 0 c543 -1 674 -39 787 -231 56 -96 75 -258 43 -371 l-14 -53 154 0 c137 0 211 -15 348 -74 46 -19 72 35 95 192 38 272 -47 510 -253 714 l-129 127 59 63 c381 408 190 1070 -370 1278 -133 49 -1476 79 -1550 34z m1319 -520 c272 -103 301 -479 48 -612 -84 -45 -109 -47 -475 -47 l-387 0 0 340 0 340 379 0 c219 0 402 -9 435 -21z"/> <path d="M4457 4181 l-47 -38 38 -72 c64 -118 166 -149 200 -59 35 92 -119 228 -191 169z"/> <path d="M1513 4083 c-63 -70 -21 -183 68 -183 60 0 123 74 108 126 -27 92 -118 121 -176 57z"/> <path d="M1224 3476 c-31 -31 -31 -101 0 -132 30 -30 442 -33 497 -3 47 25 50 85 8 128 -40 39 -466 46 -505 7z"/> <path d="M4291 3456 c-74 -106 -17 -136 256 -136 238 0 273 12 273 93 0 99 -463 136 -529 43z"/> <path d="M4325 3087 c-45 -19 -68 -83 -45 -127 28 -53 477 -62 520 -10 35 42 9 123 -45 137 -54 15 -394 14 -430 0z"/> <path d="M1208 3051 c-33 -86 -2 -121 116 -127 129 -7 179 36 136 116 -27 50 -234 60 -252 11z"/> <path d="M4586 2658 c-62 -23 -81 -109 -35 -159 45 -50 113 -50 160 2 72 80 -21 196 -125 157z"/> <path d="M3125 2538 c-198 -98 -295 -283 -295 -560 l0 -192 -88 67 c-194 148 -433 219 -628 188 -304 -50 -589 -298 -435 -380 57 -31 73 -27 145 36 322 281 688 188 1078 -272 95 -112 87 -115 312 112 368 370 655 419 974 165 159 -127 269 10 118 148 -309 283 -741 258 -1122 -65 -124 -105 -114 -108 -155 55 -73 284 77 560 305 560 70 0 106 32 106 93 0 93 -169 117 -315 45z"/> <path d="M4435 2178 c-44 -25 -47 -129 -3 -146 122 -47 201 87 87 149 -43 23 -40 23 -84 -3z"/> <path d="M1948 1652 c-259 -96 -487 -249 -488 -326 0 -86 59 -91 314 -24 433 115 657 86 980 -125 189 -123 302 -123 487 -3 346 225 539 246 1046 113 l197 -52 40 40 c61 61 32 108 -132 212 -458 290 -754 287 -1082 -10 -292 -265 -327 -264 -630 11 -239 217 -458 266 -732 164z"/> </g> </svg> 